<?xml version="1.0" encoding="utf-8"?>
<!-- Generator: Adobe Illustrator 24.0.3, SVG Export Plug-In . SVG Version: 6.00 Build 0)  -->
<svg version="1.1" id="Layer_1" xmlns="http://www.w3.org/2000/svg" xmlns:xlink="http://www.w3.org/1999/xlink" x="0px" y="0px"
	 viewBox="0 0 80 80" style="enable-background:new 0 0 80 80;" xml:space="preserve">
<style type="text/css">
	.st0{fill:#FFFFFF;}
</style>
<path class="st0" d="M148.38,58.98c0.54-20.5-2.47-40.34-11.61-58.72C120.69-32.04,95.65-53.68,59.43-59.7
	C4.28-68.85-45.72-32.05-55.91,20.16c-5.73,29.37,0.72,56.09,18.28,80.22c1.35,1.86,2.88,3.58,4.57,5.68
	C-13.69,86.11-8.03,60.49-1.13,35c4.76,2.25,9.29,4.21,13.64,6.52c3.89,2.07,6.5,1.14,8.65-2.52c4.87-8.28,6.76-17.13,3.79-26.33
	C22.09,3.8,18.43-4.8,20.89-14.51c-3.48,4.26-5.1,9.09-4.19,14.31c0.76,4.38,2.22,8.68,3.76,12.88c2.69,7.36,1.65,14.03-2.97,20.24
	c-1.83,2.46-4.28,3.47-6.96,1.79C0.84,28.62-8.79,22.42-18.35,16.13c-3.66-2.41-4.11-6.03-2.09-9.65
	c12.4-22.25,28.6-39.35,56.18-40.55c5.31-0.23,10.77-0.72,15.92,0.21c4.71,0.85,9.81,2.57,13.5,5.47
	c10.44,8.22,21.56,13.05,35.06,10.8c0.33-0.05,0.66-0.07,1-0.08c8.3-0.44,9.76,1.09,8.69,9.3c-1.25,9.57-5.79,17.33-13.55,23
	c-7.39,5.39-15.21,10.2-22.5,15.71c-8.38,6.34-10.86,15.44-6.95,25.24c3.62,9.1,8.08,17.88,11.67,26.99
	c5.73,14.53,7.79,29.54,4.62,45.04c-0.29,1.43-0.4,2.9-0.71,5.29c6.19-0.87,11.96-1.69,18.75-2.64
	c-19.04,11.78-38.5,18.23-59.35,16.88c0.56-12.69,1.11-25.03,1.64-37.07c3.91-1.55,8.98-3.04,13.5-5.54
	c2.43-1.34,4.12-4.25,5.76-6.71c2.13-3.18,1.76-6.1-2.21-7.53c-3.58-1.29-4.9-3.95-5.69-7.39c-1.46-6.37-5.11-11.33-11.22-13.79
	c-4.55-1.83-6.69-4.42-5.66-9.38c0.21-1.03-0.28-2.21-0.52-3.78c-10.94,0.88-19.82,5.27-24.6,14.84C8.94,78.7,6.51,87.46,3.93,96
	c-4.82,15.95-12.91,23-29,24.17c-1.7,0.12-3.99-0.66-5.19-1.85C-62.57,86.48-73.08,48.27-58.62,5.49
	C-44.16-37.3-12.7-61.99,32.36-66.98c55.67-6.16,105.89,31.8,116.44,86.9C151.29,32.89,151.52,46.01,148.38,58.98z M63.92-8.44
	c0-0.73-0.01-1.46-0.01-2.19c-1.93-1.35-3.97-3.88-5.74-3.71c-1.87,0.19-4.5,2.72-4.97,4.67c-0.79,3.21,1.85,5.57,4.96,5.15
	C60.21-4.79,62-7.06,63.92-8.44z"/>
<path class="st0" d="M49.45,87.76c-2.86,1.85-4.64,3.89-6.3,3.8c-1.41-0.07-2.7-2.6-4.04-4.04c1.54-1.41,2.95-3.67,4.67-3.96
	C45.08,83.36,46.79,85.68,49.45,87.76z"/>
</svg>
