<?xml version="1.0" encoding="utf-8"?>
<!-- Generator: Adobe Illustrator 24.0.3, SVG Export Plug-In . SVG Version: 6.00 Build 0)  -->
<svg version="1.1" id="Layer_1" xmlns="http://www.w3.org/2000/svg" xmlns:xlink="http://www.w3.org/1999/xlink" x="0px" y="0px"
	 viewBox="0 0 80 80" style="enable-background:new 0 0 80 80;" xml:space="preserve">
<style type="text/css">
	.st0{fill:#FFFFFF;}
</style>
<path class="st0" d="M70.86,44.92c0.14-5.44-0.65-10.71-3.08-15.58c-4.27-8.57-10.91-14.32-20.52-15.91
	c-14.64-2.43-27.9,7.34-30.61,21.19c-1.52,7.79,0.19,14.89,4.85,21.29c0.36,0.49,0.76,0.95,1.21,1.51
	c5.14-5.29,6.64-12.09,8.47-18.86c1.26,0.6,2.47,1.12,3.62,1.73c1.03,0.55,1.72,0.3,2.3-0.67c1.29-2.2,1.79-4.55,1.01-6.99
	c-0.76-2.35-1.73-4.64-1.08-7.21c-0.92,1.13-1.35,2.41-1.11,3.8c0.2,1.16,0.59,2.3,1,3.42c0.71,1.95,0.44,3.72-0.79,5.37
	c-0.49,0.65-1.14,0.92-1.85,0.47c-2.57-1.62-5.13-3.26-7.66-4.93c-0.97-0.64-1.09-1.6-0.56-2.56c3.29-5.9,7.59-10.44,14.91-10.76
	c1.41-0.06,2.86-0.19,4.22,0.05c1.25,0.23,2.6,0.68,3.58,1.45c2.77,2.18,5.72,3.46,9.3,2.87c0.09-0.01,0.18-0.02,0.26-0.02
	c2.2-0.12,2.59,0.29,2.3,2.47c-0.33,2.54-1.54,4.6-3.6,6.1c-1.96,1.43-4.04,2.71-5.97,4.17c-2.22,1.68-2.88,4.1-1.85,6.7
	c0.96,2.42,2.14,4.74,3.1,7.16c1.52,3.85,2.07,7.84,1.23,11.95c-0.08,0.38-0.1,0.77-0.19,1.4c1.64-0.23,3.17-0.45,4.98-0.7
	c-5.05,3.13-10.22,4.84-15.75,4.48c0.15-3.37,0.29-6.64,0.44-9.84c1.04-0.41,2.38-0.81,3.58-1.47c0.64-0.36,1.09-1.13,1.53-1.78
	c0.57-0.84,0.47-1.62-0.59-2c-0.95-0.34-1.3-1.05-1.51-1.96c-0.39-1.69-1.36-3.01-2.98-3.66c-1.21-0.49-1.78-1.17-1.5-2.49
	c0.06-0.27-0.08-0.59-0.14-1c-2.9,0.23-5.26,1.4-6.53,3.94c-1.05,2.1-1.7,4.43-2.38,6.7c-1.28,4.23-3.43,6.1-7.7,6.41
	c-0.45,0.03-1.06-0.18-1.38-0.49c-8.57-8.45-11.36-18.59-7.52-29.94c3.84-11.35,12.18-17.91,24.14-19.23
	c14.77-1.63,28.1,8.44,30.9,23.06C71.64,37.99,71.7,41.47,70.86,44.92z M48.45,27.03c0-0.19,0-0.39,0-0.58
	c-0.51-0.36-1.05-1.03-1.52-0.98c-0.5,0.05-1.19,0.72-1.32,1.24c-0.21,0.85,0.49,1.48,1.32,1.37
	C47.47,27.99,47.94,27.39,48.45,27.03z"/>
<path class="st0" d="M44.61,52.55c-0.76,0.49-1.23,1.03-1.67,1.01c-0.38-0.02-0.72-0.69-1.07-1.07c0.41-0.37,0.78-0.97,1.24-1.05
	C43.45,51.38,43.9,52,44.61,52.55z"/>
</svg>
